<?xml version="1.0" standalone="no"?>
<!DOCTYPE svg PUBLIC "-//W3C//DTD SVG 20010904//EN"
 "http://www.w3.org/TR/2001/REC-SVG-20010904/DTD/svg10.dtd">
<svg version="1.0" xmlns="http://www.w3.org/2000/svg"
 width="896.000000pt" height="896.000000pt" viewBox="0 0 896.000000 896.000000"
 preserveAspectRatio="xMidYMid meet">
<metadata>
Created by potrace 1.14, written by Peter Selinger 2001-2017
</metadata>
<g transform="translate(0.000000,896.000000) scale(0.100000,-0.100000)"
fill="#000000" stroke="none">
<path d="M904 8948 c-6 -9 -5 -8718 0 -8727 4 -6 2356 -8 2377 -3 3 1 5 542 5
1203 -1 660 1 1204 4 1208 3 4 363 8 800 8 726 1 920 5 1035 18 22 3 60 8 85
11 94 11 171 23 250 39 14 3 40 8 59 11 19 3 46 10 60 16 14 5 26 9 26 8 0 -3
62 12 150 37 94 27 312 107 381 139 21 10 41 19 44 19 10 1 174 87 244 127
220 127 397 261 577 438 85 83 123 125 213 230 93 110 333 479 320 493 -2 2 2
10 11 17 8 7 15 16 15 20 0 4 21 51 46 104 25 53 47 103 48 110 1 8 7 20 13
27 5 8 13 26 17 41 3 15 11 40 18 55 6 15 12 30 13 33 0 3 12 37 25 75 13 39
23 74 22 78 -1 4 4 20 13 36 8 16 12 31 9 33 -2 3 2 23 10 46 8 23 18 61 21
84 4 23 9 46 11 50 3 4 7 22 9 40 3 18 7 44 10 58 3 14 7 39 10 55 3 17 7 41
10 55 3 14 7 50 11 80 3 30 7 57 9 60 24 40 25 859 0 900 -1 3 -6 28 -9 55
-24 184 -71 383 -136 571 -22 65 -42 124 -44 129 -2 6 -13 32 -24 58 -12 27
-22 51 -22 54 0 12 -133 268 -171 330 -115 185 -169 260 -299 415 -39 46 -236
246 -290 293 -102 90 -346 264 -430 307 -14 7 -30 17 -36 23 -45 43 -543 261
-636 279 -13 2 -35 9 -51 15 -15 6 -38 13 -50 15 -12 3 -56 14 -97 25 -41 11
-88 22 -105 25 -16 2 -55 10 -85 16 -30 6 -73 14 -95 16 -22 3 -51 7 -65 10
-14 3 -47 7 -75 10 -27 3 -66 7 -85 9 -19 3 -96 8 -170 11 -180 9 -4001 11
-4006 2z m2756 -2151 c0 -5 5 -5 11 -2 15 10 149 12 149 3 0 -4 11 -4 23 1 13
5 30 5 37 1 8 -5 18 -6 24 -3 14 9 126 10 158 2 15 -4 30 -4 32 -1 2 4 28 6
58 4 60 -3 55 -3 128 1 30 2 63 -1 73 -5 9 -5 17 -5 17 -1 0 4 56 8 125 8 69
0 125 -2 125 -5 0 -3 30 -6 67 -7 37 -2 74 -6 83 -9 8 -4 24 -9 35 -11 31 -5
138 -49 176 -72 19 -12 41 -24 49 -28 59 -27 215 -169 278 -253 15 -19 30 -37
33 -40 11 -9 78 -130 102 -183 25 -53 44 -107 52 -146 3 -11 7 -31 10 -43 22
-93 21 -273 0 -378 -7 -32 -14 -65 -19 -87 -11 -47 -51 -155 -80 -213 -152
-309 -420 -510 -726 -545 -28 -4 -1296 -6 -1350 -3 -8 0 -22 -1 -30 -3 -12 -3
-15 9 -17 61 -2 118 -3 184 -2 245 1 33 1 78 0 100 -1 22 -1 76 0 120 0 44 0
107 0 140 -1 33 -1 87 0 120 0 33 0 65 -1 70 -1 6 -2 14 -1 19 3 14 4 229 1
241 -1 6 -2 12 0 15 6 16 4 110 -3 110 -5 0 -6 4 -2 9 5 9 10 166 5 186 -1 6
-2 12 0 15 6 16 4 110 -3 110 -5 0 -6 4 -2 9 5 9 10 166 5 186 -1 6 -2 12 0
15 6 16 4 110 -3 110 -5 0 -6 4 -3 9 4 5 7 35 7 68 1 32 3 60 4 63 5 9 375 5
375 -3z"/>
</g>
</svg>
