<svg width="297" height="46" fill="none" xmlns="http://www.w3.org/2000/svg"><g clip-path="url(#a)" fill="#00F"><path d="M11.882 18.024c1.927 0 3.651.412 5.172 1.244a9.119 9.119 0 0 1 3.574 3.463c.858 1.481 1.287 3.145 1.287 4.991 0 1.996-.421 3.755-1.264 5.269a8.847 8.847 0 0 1-3.526 3.525c-1.506.832-3.223 1.244-5.134 1.244H7.466v7.574H0v-27.31h11.882Zm1.123 12.598a3.16 3.16 0 0 0 1.061-1.204c.266-.508.398-1.07.398-1.688 0-.468-.132-.935-.398-1.395a3.37 3.37 0 0 0-1.069-1.14 2.5 2.5 0 0 0-1.427-.452H7.458v6.322h4.096a2.652 2.652 0 0 0 1.451-.443ZM36.543 18.024c1.935 0 3.667.397 5.18 1.197 1.514.8 2.7 1.91 3.558 3.343.858 1.434 1.287 3.074 1.287 4.92 0 1.767-.421 3.352-1.264 4.746-.843 1.402-2.005 2.488-3.48 3.264l5.423 9.84H38.72l-4.19-8.651h-2.489v8.66h-7.458V18.023h11.96Zm1.131 11.98a2.746 2.746 0 0 0 1.061-1.038c.258-.444.382-.935.382-1.49 0-.451-.132-.895-.397-1.323a3.05 3.05 0 0 0-1.062-1.038 2.773 2.773 0 0 0-1.435-.388h-4.19v5.641h4.174c.53.008 1.015-.11 1.467-.364ZM55.547 44.075c-2.254-1.284-4.04-3.027-5.36-5.23-1.318-2.202-1.973-4.602-1.973-7.201 0-2.615.655-5.007 1.974-7.202 1.318-2.187 3.105-3.922 5.36-5.205 2.254-1.284 4.72-1.918 7.395-1.918 2.66 0 5.126.642 7.373 1.918 2.247 1.275 4.041 3.01 5.367 5.205 1.327 2.195 1.99 4.587 1.99 7.202 0 2.599-.663 5-1.99 7.202a14.577 14.577 0 0 1-5.367 5.229C68.06 45.358 65.604 46 62.943 46c-2.676 0-5.14-.642-7.396-1.925Zm11.087-5.927a6.857 6.857 0 0 0 2.636-2.638c.648-1.133.968-2.416.968-3.842 0-1.427-.32-2.718-.968-3.843a6.91 6.91 0 0 0-2.636-2.638c-1.116-.626-2.341-.943-3.69-.943-1.35 0-2.575.317-3.69.943a6.857 6.857 0 0 0-2.638 2.638c-.647 1.133-.967 2.416-.967 3.843 0 1.426.328 2.71.975 3.834a7.06 7.06 0 0 0 2.653 2.639 7.3 7.3 0 0 0 3.666.95c1.35 0 2.575-.309 3.69-.943ZM80.84 18.024h6.57l7.575 10.863 7.731-10.863h6.483v27.31h-7.435V30.06l-5.874 8.636h-1.818l-5.773-8.715v15.362H80.84V18.024ZM119.7 44.075c-2.254-1.284-4.041-3.027-5.359-5.23-1.319-2.202-1.974-4.602-1.974-7.201 0-2.615.655-5.007 1.974-7.202 1.318-2.187 3.105-3.922 5.359-5.205 2.255-1.276 4.72-1.918 7.396-1.918 2.661 0 5.126.642 7.373 1.918a14.513 14.513 0 0 1 5.367 5.205c1.326 2.187 1.99 4.587 1.99 7.202 0 2.599-.664 5-1.99 7.202a14.577 14.577 0 0 1-5.367 5.229c-2.255 1.283-4.712 1.925-7.373 1.925-2.676 0-5.141-.642-7.396-1.925Zm11.086-5.927a6.85 6.85 0 0 0 2.637-2.638c.648-1.133.968-2.416.968-3.842 0-1.427-.32-2.718-.968-3.843a6.904 6.904 0 0 0-2.637-2.638c-1.115-.626-2.34-.943-3.69-.943s-2.574.317-3.69.943a6.856 6.856 0 0 0-2.637 2.638c-.647 1.133-.967 2.416-.967 3.843 0 1.426.327 2.71.975 3.834a7.003 7.003 0 0 0 2.652 2.639 7.304 7.304 0 0 0 3.667.95c1.35 0 2.575-.309 3.69-.943ZM150.594 44.067a14.553 14.553 0 0 1-5.227-5.23c-1.295-2.194-1.95-4.595-1.95-7.185 0-2.615.655-5.008 1.958-7.202 1.303-2.195 3.066-3.922 5.29-5.206 2.223-1.283 4.642-1.917 7.271-1.917 1.95 0 3.916.42 5.906 1.252a14.059 14.059 0 0 1 5.11 3.629c1.427 1.576 2.293 3.43 2.613 5.561h-7.591c-.616-1.14-1.459-2.012-2.512-2.622-1.053-.61-2.301-.911-3.737-.911-1.256 0-2.403.293-3.44.871-1.038.587-1.873 1.434-2.489 2.552-.616 1.117-.928 2.456-.928 4.009 0 1.608.304 2.963.92 4.08.616 1.109 1.443 1.949 2.481 2.511 1.045.563 2.192.84 3.464.84 1.373 0 2.551-.253 3.55-.76.998-.508 1.677-1.3 2.044-2.37h-5.875v-5.902h14.262c.054 3.36-.469 6.235-1.561 8.628s-2.699 4.207-4.806 5.451c-2.106 1.244-4.642 1.87-7.591 1.87-2.598-.016-4.977-.658-7.162-1.95ZM186.818 18.024c1.935 0 3.667.397 5.18 1.197 1.514.8 2.699 1.91 3.558 3.343.858 1.434 1.287 3.074 1.287 4.92 0 1.767-.421 3.352-1.264 4.746-.843 1.402-2.005 2.488-3.48 3.264l5.423 9.84h-8.528l-4.189-8.66h-2.489v8.66h-7.458v-27.31h11.96Zm1.131 11.98a2.74 2.74 0 0 0 1.061-1.038c.258-.444.382-.935.382-1.49a2.48 2.48 0 0 0-.398-1.323 3.045 3.045 0 0 0-1.061-1.038 2.77 2.77 0 0 0-1.435-.388h-4.19v5.641h4.174a2.843 2.843 0 0 0 1.467-.364ZM205.822 44.075c-2.254-1.284-4.041-3.027-5.359-5.23-1.319-2.202-1.974-4.602-1.974-7.201 0-2.615.655-5.007 1.974-7.202 1.318-2.187 3.105-3.922 5.359-5.205 2.255-1.284 4.72-1.918 7.396-1.918 2.661 0 5.126.642 7.373 1.918 2.247 1.275 4.041 3.01 5.367 5.205 1.327 2.195 1.99 4.587 1.99 7.202 0 2.599-.663 5-1.99 7.202a14.577 14.577 0 0 1-5.367 5.229c-2.255 1.283-4.712 1.925-7.373 1.925-2.676 0-5.141-.642-7.396-1.925Zm11.086-5.927a6.85 6.85 0 0 0 2.637-2.638c.648-1.133.968-2.416.968-3.842 0-1.427-.32-2.718-.968-3.843a6.904 6.904 0 0 0-2.637-2.638c-1.115-.626-2.34-.943-3.69-.943-1.342 0-2.574.317-3.69.943a6.856 6.856 0 0 0-2.637 2.638c-.64 1.125-.967 2.416-.967 3.843 0 1.426.327 2.71.975 3.834a7.003 7.003 0 0 0 2.652 2.639 7.304 7.304 0 0 0 3.667.95c1.35 0 2.575-.309 3.69-.943ZM236.654 44.637c-1.849-.91-3.292-2.21-4.353-3.906-1.053-1.695-1.584-3.668-1.584-5.918V18.024h7.435V34.25c0 1.474.406 2.654 1.225 3.558.819.903 1.974 1.347 3.464 1.347 1.467 0 2.606-.452 3.425-1.355s1.225-2.092 1.225-3.566v-16.21h7.458v16.789c0 2.14-.491 4.064-1.482 5.76-.991 1.703-2.403 3.026-4.229 3.985-1.833.959-3.963 1.434-6.389 1.434-2.286.008-4.346-.444-6.195-1.355ZM271.185 18.024c1.927 0 3.651.412 5.172 1.244a9.12 9.12 0 0 1 3.573 3.463c.858 1.481 1.287 3.145 1.287 4.991 0 1.996-.421 3.755-1.263 5.269a8.85 8.85 0 0 1-3.527 3.525c-1.505.832-3.222 1.244-5.133 1.244h-4.525v7.574h-7.458v-27.31h11.874Zm1.115 12.598a3.156 3.156 0 0 0 1.061-1.204c.266-.508.398-1.07.398-1.688 0-.468-.132-.935-.398-1.395a3.363 3.363 0 0 0-1.069-1.14 2.497 2.497 0 0 0-1.427-.452h-4.112v6.322h4.096a2.649 2.649 0 0 0 1.451-.443ZM275.99 0h-2.379v13.017h2.379V0Z"/><path d="M268.391 5.3v2.417h12.818V5.301h-12.818ZM297.001 19.734l-1.683-1.71-9.063 9.205 1.682 1.71 9.064-9.205Z"/><path d="m287.932 18.022-1.682 1.709 9.063 9.204 1.683-1.708-9.064-9.205ZM291.671 9.357c1.547 0 2.801-1.273 2.801-2.844s-1.254-2.845-2.801-2.845c-1.546 0-2.8 1.274-2.8 2.845 0 1.57 1.254 2.844 2.8 2.844Z"/></g><defs><clipPath id="a"><path fill="#fff" d="M0 0h297v46H0z"/></clipPath></defs></svg>